<svg width="237" height="849" fill="none" xmlns="http://www.w3.org/2000/svg"><path d="M191 93V.5H-2V849h46V734.5h129.5c50 0 63.167-42.333 63.5-63.5v-92.5c0-40.8-30.333-47.333-45.5-45.5h-50c-12.5.167-37.5-7.1-37.5-37.5s25-37.667 37.5-37.5c16.667.667 50-8.4 50-50s-33.333-50.667-50-50h-119l77-77v-96.5c-1.833-14 4-42 42-42s48.833-33 49.5-49.5z" fill="url(#paint0_linear)"/><defs><linearGradient id="paint0_linear" x1="-401" y1="351" x2="326.5" y2="463.5" gradientUnits="userSpaceOnUse"><stop stop-color="#DA32F5"/><stop offset="1" stop-color="#C4C4C4" stop-opacity="0"/></linearGradient></defs></svg>